<?xml version="1.0" encoding="UTF-8" standalone="no"?>
<!DOCTYPE svg PUBLIC "-//W3C//DTD SVG 1.1//EN"
 "http://www.w3.org/Graphics/SVG/1.1/DTD/svg11.dtd">
<!-- Generated by graphviz version 2.36.0 (20140111.2315)
 -->
<!-- Title: G Pages: 1 -->
<svg width="230pt" height="260pt"
 viewBox="0.00 0.00 230.00 260.00" xmlns="http://www.w3.org/2000/svg" xmlns:xlink="http://www.w3.org/1999/xlink">
<g id="graph0" class="graph" transform="scale(1 1) rotate(0) translate(4 256)">
<title>G</title>
<polygon fill="white" stroke="none" points="-4,4 -4,-256 226,-256 226,4 -4,4"/>
<!-- wetgain -->
<g id="node1" class="node"><title>wetgain</title>
<ellipse fill="none" stroke="black" cx="171" cy="-90" rx="51.4931" ry="18"/>
<text text-anchor="middle" x="171" y="-86.3" font-family="Arial,sans-serif" font-size="14.00">Gain (wet)</text>
</g>
<!-- destination -->
<g id="node4" class="node"><title>destination</title>
<ellipse fill="none" stroke="black" cx="110" cy="-18" rx="55.3682" ry="18"/>
<text text-anchor="middle" x="110" y="-14.3" font-family="Arial,sans-serif" font-size="14.00">destination</text>
</g>
<!-- wetgain&#45;&gt;destination -->
<g id="edge2" class="edge"><title>wetgain&#45;&gt;destination</title>
<path fill="none" stroke="black" d="M156.544,-72.411C148.947,-63.6933 139.494,-52.8454 131.095,-43.2077"/>
<polygon fill="black" stroke="black" points="133.561,-40.7096 124.352,-35.4699 128.284,-45.3085 133.561,-40.7096"/>
</g>
<!-- drygain -->
<g id="node2" class="node"><title>drygain</title>
<ellipse fill="none" stroke="black" cx="50" cy="-90" rx="50.5427" ry="18"/>
<text text-anchor="middle" x="50" y="-86.3" font-family="Arial,sans-serif" font-size="14.00">Gain (dry)</text>
</g>
<!-- drygain&#45;&gt;destination -->
<g id="edge5" class="edge"><title>drygain&#45;&gt;destination</title>
<path fill="none" stroke="black" d="M64.2192,-72.411C71.6914,-63.6933 80.9896,-52.8454 89.2506,-43.2077"/>
<polygon fill="black" stroke="black" points="92.0324,-45.3403 95.8829,-35.4699 86.7175,-40.7848 92.0324,-45.3403"/>
</g>
<!-- Convolver -->
<g id="node3" class="node"><title>Convolver</title>
<ellipse fill="none" stroke="black" cx="160" cy="-162" rx="51.4931" ry="18"/>
<text text-anchor="middle" x="160" y="-158.3" font-family="Arial,sans-serif" font-size="14.00">Convolver</text>
</g>
<!-- Convolver&#45;&gt;wetgain -->
<g id="edge1" class="edge"><title>Convolver&#45;&gt;wetgain</title>
<path fill="none" stroke="black" d="M162.719,-143.697C163.931,-135.983 165.388,-126.712 166.739,-118.112"/>
<polygon fill="black" stroke="black" points="170.217,-118.526 168.312,-108.104 163.302,-117.44 170.217,-118.526"/>
</g>
<!-- BufferSource -->
<g id="node5" class="node"><title>BufferSource</title>
<ellipse fill="none" stroke="black" cx="110" cy="-234" rx="65.4659" ry="18"/>
<text text-anchor="middle" x="110" y="-230.3" font-family="Arial,sans-serif" font-size="14.00">BufferSource</text>
</g>
<!-- BufferSource&#45;&gt;drygain -->
<g id="edge4" class="edge"><title>BufferSource&#45;&gt;drygain</title>
<path fill="none" stroke="black" d="M102.763,-215.871C92.4466,-191.457 73.4194,-146.426 61.2543,-117.635"/>
<polygon fill="black" stroke="black" points="64.3793,-116.038 57.2631,-108.189 57.9313,-118.763 64.3793,-116.038"/>
</g>
<!-- BufferSource&#45;&gt;Convolver -->
<g id="edge3" class="edge"><title>BufferSource&#45;&gt;Convolver</title>
<path fill="none" stroke="black" d="M122.104,-216.055C128.122,-207.629 135.514,-197.28 142.167,-187.966"/>
<polygon fill="black" stroke="black" points="145.044,-189.961 148.008,-179.789 139.347,-185.892 145.044,-189.961"/>
</g>
</g>
</svg>
