<?xml version="1.0" encoding="UTF-8" standalone="no"?>
<!DOCTYPE svg PUBLIC "-//W3C//DTD SVG 1.1//EN"
 "http://www.w3.org/Graphics/SVG/1.1/DTD/svg11.dtd">
<!-- Generated by graphviz version 2.36.0 (20140111.2315)
 -->
<!-- Title: G Pages: 1 -->
<svg width="298pt" height="332pt"
 viewBox="0.00 0.00 298.00 332.00" xmlns="http://www.w3.org/2000/svg" xmlns:xlink="http://www.w3.org/1999/xlink">
<g id="graph0" class="graph" transform="scale(1 1) rotate(0) translate(4 328)">
<title>G</title>
<polygon fill="white" stroke="none" points="-4,4 -4,-328 294,-328 294,4 -4,4"/>
<!-- modulator -->
<g id="node1" class="node"><title>modulator</title>
<ellipse fill="none" stroke="black" cx="217" cy="-234" rx="51.0191" ry="18"/>
<text text-anchor="middle" x="217" y="-230.3" font-family="Arial,sans-serif" font-size="14.00">Modulator</text>
</g>
<!-- modgain -->
<g id="node2" class="node"><title>modgain</title>
<ellipse fill="none" stroke="black" cx="217" cy="-162" rx="72.192" ry="18"/>
<text text-anchor="middle" x="217" y="-158.3" font-family="Arial,sans-serif" font-size="14.00">Modulator Gain</text>
</g>
<!-- modulator&#45;&gt;modgain -->
<g id="edge1" class="edge"><title>modulator&#45;&gt;modgain</title>
<path fill="none" stroke="black" d="M217,-215.697C217,-207.983 217,-198.712 217,-190.112"/>
<polygon fill="black" stroke="black" points="220.5,-190.104 217,-180.104 213.5,-190.104 220.5,-190.104"/>
</g>
<!-- Carrier -->
<g id="node5" class="node"><title>Carrier</title>
<ellipse fill="none" stroke="black" cx="140" cy="-90" rx="38.0212" ry="18"/>
<text text-anchor="middle" x="140" y="-86.3" font-family="Arial,sans-serif" font-size="14.00">Carrier</text>
</g>
<!-- modgain&#45;&gt;Carrier -->
<g id="edge2" class="edge"><title>modgain&#45;&gt;Carrier</title>
<path fill="none" stroke="black" stroke-dasharray="1,5" d="M198.752,-144.411C188.517,-135.106 175.613,-123.375 164.507,-113.279"/>
<polygon fill="black" stroke="black" points="166.555,-110.411 156.801,-106.274 161.846,-115.591 166.555,-110.411"/>
</g>
<!-- modf -->
<g id="node3" class="node"><title>modf</title>
<polygon fill="none" stroke="black" points="290,-324 144,-324 144,-288 290,-288 290,-324"/>
<text text-anchor="middle" x="217" y="-302.3" font-family="Arial,sans-serif" font-size="14.00">Modulator frequency</text>
</g>
<!-- modf&#45;&gt;modulator -->
<g id="edge4" class="edge"><title>modf&#45;&gt;modulator</title>
<path fill="none" stroke="black" stroke-dasharray="1,5" d="M217,-287.697C217,-279.983 217,-270.712 217,-262.112"/>
<polygon fill="black" stroke="black" points="220.5,-262.104 217,-252.104 213.5,-262.104 220.5,-262.104"/>
</g>
<!-- carrierf -->
<g id="node4" class="node"><title>carrierf</title>
<polygon fill="none" stroke="black" points="126,-180 0,-180 0,-144 126,-144 126,-180"/>
<text text-anchor="middle" x="63" y="-158.3" font-family="Arial,sans-serif" font-size="14.00">Carrier frequency</text>
</g>
<!-- carrierf&#45;&gt;Carrier -->
<g id="edge5" class="edge"><title>carrierf&#45;&gt;Carrier</title>
<path fill="none" stroke="black" stroke-dasharray="1,5" d="M82.0337,-143.697C92.2113,-134.444 104.852,-122.953 115.729,-113.064"/>
<polygon fill="black" stroke="black" points="118.232,-115.519 123.277,-106.202 113.524,-110.339 118.232,-115.519"/>
</g>
<!-- destination -->
<g id="node6" class="node"><title>destination</title>
<ellipse fill="none" stroke="black" cx="140" cy="-18" rx="55.3682" ry="18"/>
<text text-anchor="middle" x="140" y="-14.3" font-family="Arial,sans-serif" font-size="14.00">destination</text>
</g>
<!-- Carrier&#45;&gt;destination -->
<g id="edge3" class="edge"><title>Carrier&#45;&gt;destination</title>
<path fill="none" stroke="black" d="M140,-71.6966C140,-63.9827 140,-54.7125 140,-46.1124"/>
<polygon fill="black" stroke="black" points="143.5,-46.1043 140,-36.1043 136.5,-46.1044 143.5,-46.1043"/>
</g>
</g>
</svg>
