<?xml version="1.0" encoding="UTF-8" standalone="no"?>
<!DOCTYPE svg PUBLIC "-//W3C//DTD SVG 1.1//EN"
 "http://www.w3.org/Graphics/SVG/1.1/DTD/svg11.dtd">
<!-- Generated by graphviz version 2.36.0 (20140111.2315)
 -->
<!-- Title: G Pages: 1 -->
<svg width="262pt" height="260pt"
 viewBox="0.00 0.00 262.00 260.00" xmlns="http://www.w3.org/2000/svg" xmlns:xlink="http://www.w3.org/1999/xlink">
<g id="graph0" class="graph" transform="scale(1 1) rotate(0) translate(4 256)">
<title>G</title>
<polygon fill="white" stroke="none" points="-4,4 -4,-256 258,-256 258,4 -4,4"/>
<!-- Oscillator -->
<g id="node1" class="node"><title>Oscillator</title>
<ellipse fill="none" stroke="black" cx="46" cy="-234" rx="46.1964" ry="18"/>
<text text-anchor="middle" x="46" y="-230.3" font-family="Times,serif" font-size="14.00">Oscillator</text>
</g>
<!-- BiquadFilter -->
<g id="node2" class="node"><title>BiquadFilter</title>
<ellipse fill="none" stroke="black" cx="146" cy="-162" rx="56.3173" ry="18"/>
<text text-anchor="middle" x="146" y="-158.3" font-family="Times,serif" font-size="14.00">BiquadFilter</text>
</g>
<!-- Oscillator&#45;&gt;BiquadFilter -->
<g id="edge1" class="edge"><title>Oscillator&#45;&gt;BiquadFilter</title>
<path fill="none" stroke="black" stroke-width="3" d="M67.6985,-217.811C81.6572,-208.04 100.004,-195.197 115.429,-184.4"/>
<polygon fill="black" stroke="black" stroke-width="3" points="117.466,-187.246 123.651,-178.644 113.452,-181.511 117.466,-187.246"/>
</g>
<!-- Gain -->
<g id="node3" class="node"><title>Gain</title>
<ellipse fill="none" stroke="black" cx="146" cy="-90" rx="28.3955" ry="18"/>
<text text-anchor="middle" x="146" y="-86.3" font-family="Times,serif" font-size="14.00">Gain</text>
</g>
<!-- BiquadFilter&#45;&gt;Gain -->
<g id="edge2" class="edge"><title>BiquadFilter&#45;&gt;Gain</title>
<path fill="none" stroke="black" stroke-width="3" d="M146,-143.697C146,-135.983 146,-126.712 146,-118.112"/>
<polygon fill="black" stroke="black" stroke-width="3" points="149.5,-118.104 146,-108.104 142.5,-118.104 149.5,-118.104"/>
</g>
<!-- destination -->
<g id="node4" class="node"><title>destination</title>
<ellipse fill="none" stroke="black" cx="146" cy="-18" rx="51.0191" ry="18"/>
<text text-anchor="middle" x="146" y="-14.3" font-family="Times,serif" font-size="14.00">destination</text>
</g>
<!-- Gain&#45;&gt;destination -->
<g id="edge3" class="edge"><title>Gain&#45;&gt;destination</title>
<path fill="none" stroke="black" stroke-width="3" d="M146,-71.6966C146,-63.9827 146,-54.7125 146,-46.1124"/>
<polygon fill="black" stroke="black" stroke-width="3" points="149.5,-46.1043 146,-36.1043 142.5,-46.1044 149.5,-46.1043"/>
</g>
<!-- frequency -->
<g id="node5" class="node"><title>frequency</title>
<polygon fill="none" stroke="black" points="181.25,-252 110.75,-252 110.75,-216 181.25,-216 181.25,-252"/>
<text text-anchor="middle" x="146" y="-230.3" font-family="Times,serif" font-size="14.00">frequency</text>
</g>
<!-- frequency&#45;&gt;BiquadFilter -->
<g id="edge4" class="edge"><title>frequency&#45;&gt;BiquadFilter</title>
<path fill="none" stroke="black" stroke-dasharray="1,5" d="M146,-215.697C146,-207.983 146,-198.712 146,-190.112"/>
<polygon fill="black" stroke="black" points="149.5,-190.104 146,-180.104 142.5,-190.104 149.5,-190.104"/>
</g>
<!-- Q -->
<g id="node6" class="node"><title>Q</title>
<polygon fill="none" stroke="black" points="254,-252 200,-252 200,-216 254,-216 254,-252"/>
<text text-anchor="middle" x="227" y="-230.3" font-family="Times,serif" font-size="14.00">Q</text>
</g>
<!-- Q&#45;&gt;BiquadFilter -->
<g id="edge5" class="edge"><title>Q&#45;&gt;BiquadFilter</title>
<path fill="none" stroke="black" stroke-dasharray="1,5" d="M206.978,-215.697C196.573,-206.705 183.721,-195.598 172.503,-185.904"/>
<polygon fill="black" stroke="black" points="174.536,-183.035 164.682,-179.145 169.959,-188.331 174.536,-183.035"/>
</g>
</g>
</svg>
