<?xml version="1.0" encoding="UTF-8" standalone="no"?>
<!DOCTYPE svg PUBLIC "-//W3C//DTD SVG 1.1//EN"
 "http://www.w3.org/Graphics/SVG/1.1/DTD/svg11.dtd">
<!-- Generated by graphviz version 2.36.0 (20140111.2315)
 -->
<!-- Title: G Pages: 1 -->
<svg width="110pt" height="188pt"
 viewBox="0.00 0.00 110.00 188.00" xmlns="http://www.w3.org/2000/svg" xmlns:xlink="http://www.w3.org/1999/xlink">
<g id="graph0" class="graph" transform="scale(1 1) rotate(0) translate(4 184)">
<title>G</title>
<polygon fill="white" stroke="none" points="-4,4 -4,-184 106,-184 106,4 -4,4"/>
<!-- Oscillator -->
<g id="node1" class="node"><title>Oscillator</title>
<ellipse fill="none" stroke="black" cx="51" cy="-162" rx="46.1964" ry="18"/>
<text text-anchor="middle" x="51" y="-158.3" font-family="Times,serif" font-size="14.00">Oscillator</text>
</g>
<!-- Gain -->
<g id="node2" class="node"><title>Gain</title>
<ellipse fill="none" stroke="black" cx="51" cy="-90" rx="28.3955" ry="18"/>
<text text-anchor="middle" x="51" y="-86.3" font-family="Times,serif" font-size="14.00">Gain</text>
</g>
<!-- Oscillator&#45;&gt;Gain -->
<g id="edge1" class="edge"><title>Oscillator&#45;&gt;Gain</title>
<path fill="none" stroke="black" d="M51,-143.697C51,-135.983 51,-126.712 51,-118.112"/>
<polygon fill="black" stroke="black" points="54.5001,-118.104 51,-108.104 47.5001,-118.104 54.5001,-118.104"/>
</g>
<!-- destination -->
<g id="node3" class="node"><title>destination</title>
<ellipse fill="none" stroke="black" cx="51" cy="-18" rx="51.0191" ry="18"/>
<text text-anchor="middle" x="51" y="-14.3" font-family="Times,serif" font-size="14.00">destination</text>
</g>
<!-- Gain&#45;&gt;destination -->
<g id="edge2" class="edge"><title>Gain&#45;&gt;destination</title>
<path fill="none" stroke="black" d="M51,-71.6966C51,-63.9827 51,-54.7125 51,-46.1124"/>
<polygon fill="black" stroke="black" points="54.5001,-46.1043 51,-36.1043 47.5001,-46.1044 54.5001,-46.1043"/>
</g>
</g>
</svg>
