<?xml version="1.0" encoding="UTF-8" standalone="no"?>
<!DOCTYPE svg PUBLIC "-//W3C//DTD SVG 1.1//EN"
 "http://www.w3.org/Graphics/SVG/1.1/DTD/svg11.dtd">
<!-- Generated by graphviz version 2.36.0 (20140111.2315)
 -->
<!-- Title: G Pages: 1 -->
<svg width="173pt" height="188pt"
 viewBox="0.00 0.00 173.00 188.00" xmlns="http://www.w3.org/2000/svg" xmlns:xlink="http://www.w3.org/1999/xlink">
<g id="graph0" class="graph" transform="scale(1 1) rotate(0) translate(4 184)">
<title>G</title>
<polygon fill="white" stroke="none" points="-4,4 -4,-184 169,-184 169,4 -4,4"/>
<!-- Oscillator -->
<g id="node1" class="node"><title>Oscillator</title>
<ellipse fill="none" stroke="black" cx="46" cy="-162" rx="46.1964" ry="18"/>
<text text-anchor="middle" x="46" y="-158.3" font-family="Times,serif" font-size="14.00">Oscillator</text>
</g>
<!-- Gain -->
<g id="node2" class="node"><title>Gain</title>
<ellipse fill="none" stroke="black" cx="92" cy="-90" rx="28.3955" ry="18"/>
<text text-anchor="middle" x="92" y="-86.3" font-family="Times,serif" font-size="14.00">Gain</text>
</g>
<!-- Oscillator&#45;&gt;Gain -->
<g id="edge1" class="edge"><title>Oscillator&#45;&gt;Gain</title>
<path fill="none" stroke="black" d="M56.9014,-144.411C62.5969,-135.744 69.6761,-124.971 75.9819,-115.375"/>
<polygon fill="black" stroke="black" points="78.9267,-117.267 81.4935,-106.988 73.0767,-113.423 78.9267,-117.267"/>
</g>
<!-- destination -->
<g id="node3" class="node"><title>destination</title>
<ellipse fill="none" stroke="black" cx="92" cy="-18" rx="51.0191" ry="18"/>
<text text-anchor="middle" x="92" y="-14.3" font-family="Times,serif" font-size="14.00">destination</text>
</g>
<!-- Gain&#45;&gt;destination -->
<g id="edge2" class="edge"><title>Gain&#45;&gt;destination</title>
<path fill="none" stroke="black" d="M92,-71.6966C92,-63.9827 92,-54.7125 92,-46.1124"/>
<polygon fill="black" stroke="black" points="95.5001,-46.1043 92,-36.1043 88.5001,-46.1044 95.5001,-46.1043"/>
</g>
<!-- gain -->
<g id="node4" class="node"><title>gain</title>
<polygon fill="none" stroke="black" points="165,-180 111,-180 111,-144 165,-144 165,-180"/>
<text text-anchor="middle" x="138" y="-158.3" font-family="Times,serif" font-size="14.00">gain</text>
</g>
<!-- gain&#45;&gt;Gain -->
<g id="edge3" class="edge"><title>gain&#45;&gt;Gain</title>
<path fill="none" stroke="black" stroke-dasharray="1,5" d="M126.629,-143.697C121.065,-135.229 114.267,-124.885 108.173,-115.612"/>
<polygon fill="black" stroke="black" points="111.026,-113.579 102.609,-107.145 105.176,-117.424 111.026,-113.579"/>
</g>
</g>
</svg>
